# xmcd
#
# Track frame offsets:
#	150
#	14950
#	37753
#	53010
#	70456
#	87395
#	103950
#	122661
#	137667
#	153992
#	169149
#	185088
#	202595
#	219269
#
# Disc length: 3144 seconds
#
# Revision: 0
# Processed by: cddbd v1.5.2PL0 Copyright (c) Steve Scherf et al.
# Submitted via: EasyCDDAExtractor 15.3.0.1
#
DISCID=c30c460e
DTITLE=Rocio Durcal - Canciones De Amor
DYEAR=2012
DGENRE=Latin
TTITLE0=Jamas Te Dejare
TTITLE1=Te Amo
TTITLE2=Luz De Luna (Con Mariachi Los Vargas De Arturo Mendoza)
TTITLE3=Hasta Que Vuelvas
TTITLE4=No Sirvo Para Estar Sin Ti
TTITLE5=Un Pedazo De Luna
TTITLE6=Que De Mi
TTITLE7=Vestida De Blanco
TTITLE8=Caricias
TTITLE9=Hay Amores Y Amores
TTITLE10=Para Toda La Vida
TTITLE11=Pagare Condena
TTITLE12=Necesito
TTITLE13=Sombras... Nada Mas
EXTD=
EXTT0=
EXTT1=
EXTT2=
EXTT3=
EXTT4=
EXTT5=
EXTT6=
EXTT7=
EXTT8=
EXTT9=
EXTT10=
EXTT11=
EXTT12=
EXTT13=
PLAYORDER=
